<?xml version="1.0" encoding="utf-8"?>
<!-- Generator: Adobe Illustrator 23.0.2, SVG Export Plug-In . SVG Version: 6.00 Build 0)  -->
<svg version="1.1" id="canvas_66" transform="matrix(1,0,0,1,0,0)" xmlns:ns1="http://www.w3.org/2000/svg"
	 xmlns="http://www.w3.org/2000/svg" xmlns:xlink="http://www.w3.org/1999/xlink" x="0px" y="0px" viewBox="0 0 544.7 328.1"
	 style="enable-background:new 0 0 544.7 328.1;" xml:space="preserve">
<style type="text/css">
	.st0{fill:#F8D1BE;}
	.st1{fill:#E97658;}
	.st2{font-family:'FZRUIZHK_ZHONG--GBK1-0';}
	.st3{font-size:23px;}
	.st4{fill:#727171;}
	.st5{font-family:'FZLTHJW--GB1-0';}
	.st6{font-size:14px;}
	.st7{font-size:9px;}
	.st8{fill:#EA1C35;}
	.st9{fill:#FEEEE4;}
	.st10{fill:none;stroke:#E39068;stroke-miterlimit:10;}
	.st11{fill:none;stroke:#E39068;}
</style>
<rect x="453.5" y="37.6" class="st0" width="62.9" height="24.9"/>
<g id="gWaterWrap">
</g>
<text transform="matrix(1 0 0 1 25 56.8078)" class="st1 st2 st3">8个国家的病例占全球总数的三分之二</text>
<g id="gUnit">
	<text transform="matrix(1 0 0 1 460.0471 55.6247)" class="st4 st5 st6">单位: %</text>
</g>
<g id="gSource">
	<text transform="matrix(1 0 0 1 25 302.0941)" class="st4 st5 st7">数据来源: 世界卫生组织（WHO）：Global Tuberculosis Report 2021</text>
</g>
<text id="gSource_1_" transform="matrix(1 0 0 1 28.7782 273)" class="st4 st5 st6">印度</text>
<text id="gSource_5_" transform="matrix(1 0 0 1 33.7665 113.1176)" class="st4 st5 st6">26</text>
<text id="gSource_3_" transform="matrix(1 0 0 1 138.6695 273)" class="st4 st5 st6">印度尼西亚</text>
<text id="gSource_4_" transform="matrix(1 0 0 1 219.1825 273)" class="st4 st5 st6">菲律宾</text>
<text id="gSource_6_" transform="matrix(1 0 0 1 276.2884 273)" class="st4 st5 st6">巴基斯坦</text>
<text id="gSource_7_" transform="matrix(1 0 0 1 345.7351 273)" class="st4 st5 st6">尼日利亚</text>
<text id="gSource_8_" transform="matrix(1 0 0 1 411.5821 273)" class="st4 st5 st6">孟加拉国</text>
<text id="gSource_9_" transform="matrix(1 0 0 1 488.0762 273)" class="st4 st5 st6">南非</text>
<g id="gSource_2_">
	<text transform="matrix(1 0 0 1 93.3312 273.0001)" class="st8 st5 st6">中国</text>
</g>
<path class="st1" d="M30.7,119.9h24.7c1.6,0,2.9,0.7,2.9,1.5v121.8c0,0.8-1.3,1.5-2.9,1.5H30.7c-1.6,0-2.9-0.7-2.9-1.5V121.4
	C27.8,120.6,29.1,119.9,30.7,119.9z"/>
<g>
	<path class="st9" d="M96.2,119.9h24.7c1.6,0,2.9,0.7,2.9,1.5v121.8c0,0.8-1.3,1.5-2.9,1.5H96.2c-1.6,0-2.9-0.7-2.9-1.5V121.4
		C93.3,120.6,94.6,119.9,96.2,119.9z"/>
	<path class="st8" d="M96.2,203.9h24.7c1.6,0,2.9,0.7,2.9,1.5v37.8c0,0.8-1.3,1.5-2.9,1.5H96.2c-1.6,0-2.9-0.7-2.9-1.5v-37.8
		C93.3,204.6,94.6,203.9,96.2,203.9z"/>
</g>
<g>
	<path class="st9" d="M161.7,119.9h24.7c1.6,0,2.9,0.7,2.9,1.5v121.8c0,0.8-1.3,1.5-2.9,1.5h-24.7c-1.6,0-2.9-0.7-2.9-1.5V121.4
		C158.8,120.6,160.1,119.9,161.7,119.9z"/>
	<path class="st1" d="M161.7,204.4h24.7c1.6,0,2.9,0.7,2.9,1.5v37.3c0,0.8-1.3,1.5-2.9,1.5h-24.7c-1.6,0-2.9-0.7-2.9-1.5V206
		C158.8,205.1,160.1,204.4,161.7,204.4L161.7,204.4z"/>
</g>
<g>
	<path class="st9" d="M227.2,119.9h24.7c1.6,0,2.9,0.7,2.9,1.5v121.8c0,0.8-1.3,1.5-2.9,1.5h-24.7c-1.6,0-2.9-0.7-2.9-1.5V121.4
		C224.3,120.6,225.6,119.9,227.2,119.9z"/>
	<path class="st1" d="M227.2,216h24.7c1.6,0,2.9,0.7,2.9,1.5v25.7c0,0.8-1.3,1.5-2.9,1.5h-24.7c-1.6,0-2.9-0.7-2.9-1.5v-25.7
		C224.3,216.6,225.6,216,227.2,216z"/>
</g>
<g>
	<path class="st9" d="M292.7,119.9h24.7c1.6,0,2.9,0.7,2.9,1.5v121.8c0,0.8-1.3,1.5-2.9,1.5h-24.7c-1.6,0-2.9-0.7-2.9-1.5V121.4
		C289.8,120.6,291.1,119.9,292.7,119.9z"/>
	<path class="st1" d="M292.7,216.9h24.7c1.6,0,2.9,0.7,2.9,1.5v24.8c0,0.8-1.3,1.5-2.9,1.5h-24.7c-1.6,0-2.9-0.7-2.9-1.5v-24.8
		C289.8,217.6,291.1,216.9,292.7,216.9z"/>
</g>
<g>
	<path class="st9" d="M358.2,119.9h24.7c1.6,0,2.9,0.7,2.9,1.5v121.8c0,0.8-1.3,1.5-2.9,1.5h-24.7c-1.6,0-2.9-0.7-2.9-1.5V121.4
		C355.3,120.6,356.6,119.9,358.2,119.9z"/>
	<path class="st1" d="M358.2,222.7h24.7c1.6,0,2.9,0.7,2.9,1.5v19c0,0.8-1.3,1.5-2.9,1.5h-24.7c-1.6,0-2.9-0.7-2.9-1.5v-19
		C355.3,223.4,356.6,222.7,358.2,222.7z"/>
</g>
<g>
	<path class="st9" d="M423.7,119.9h24.7c1.6,0,2.9,0.7,2.9,1.5v121.8c0,0.8-1.3,1.5-2.9,1.5h-24.7c-1.6,0-2.9-0.7-2.9-1.5V121.4
		C420.8,120.6,422.1,119.9,423.7,119.9z"/>
	<path class="st1" d="M423.7,227.5h24.7c1.6,0,2.9,0.7,2.9,1.5v14.2c0,0.8-1.3,1.5-2.9,1.5h-24.7c-1.6,0-2.9-0.7-2.9-1.5V229
		C420.8,228.2,422.1,227.5,423.7,227.5z"/>
</g>
<g>
	<path class="st9" d="M489.2,119.9h24.7c1.6,0,2.9,0.7,2.9,1.5v121.8c0,0.8-1.3,1.5-2.9,1.5h-24.7c-1.6,0-2.9-0.7-2.9-1.5V121.4
		C486.3,120.6,487.6,119.9,489.2,119.9z"/>
	<path class="st1" d="M489.2,228.9h24.7c1.6,0,2.9,0.7,2.9,1.5v12.8c0,0.8-1.3,1.5-2.9,1.5h-24.7c-1.6,0-2.9-0.7-2.9-1.5v-12.8
		C486.3,229.6,487.6,228.9,489.2,228.9z"/>
</g>
<g transform="matrix(1,0,0,1,0,0)">
</g>
<line class="st10" x1="27.8" y1="71" x2="516.9" y2="71"/>
<g id="gSource_11_">
	<text transform="matrix(1 0 0 1 97.4135 192.3176)" class="st8 st5 st6">8.5</text>
</g>
<text id="gSource_12_" transform="matrix(1 0 0 1 162.5429 192.3177)" class="st4 st5 st6">8.4</text>
<text id="gSource_14_" transform="matrix(1 0 0 1 234.6135 207.5647)" class="st4 st5 st6">6</text>
<text id="gSource_15_" transform="matrix(1 0 0 1 294.2606 207.5647)" class="st4 st5 st6">5.8</text>
<text id="gSource_16_" transform="matrix(1 0 0 1 359.3312 215.9576)" class="st4 st5 st6">4.6</text>
<text id="gSource_17_" transform="matrix(1 0 0 1 425.1194 222.683)" class="st4 st5 st6">3.6</text>
<text id="gSource_18_" transform="matrix(1 0 0 1 490.6253 224.6041)" class="st4 st5 st6">3.3</text>
<line class="st11" x1="25" y1="287.6" x2="516.9" y2="287.6"/>
</svg>
