<svg id="图层_1" data-name="图层 1" xmlns="http://www.w3.org/2000/svg" viewBox="0 0 423.82 239.49"><defs><style>.cls-1{font-size:23px;fill:#db8c66;}.cls-1,.cls-11{font-family:FZRUIZHK_ZHONG--GBK1-0, FZRuiZhengHei_GBK;}.cls-10,.cls-17,.cls-19,.cls-2,.cls-21,.cls-5,.cls-7{fill:none;}.cls-10,.cls-2{stroke:#727171;}.cls-17,.cls-2,.cls-5{stroke-miterlimit:10;}.cls-10,.cls-2,.cls-5,.cls-7{stroke-width:2px;}.cls-13,.cls-3{font-size:8px;}.cls-15,.cls-3{fill:#727171;}.cls-12,.cls-13,.cls-20,.cls-3{font-family:FZLTHJW--GB1-0, FZLanTingHeiS-R-GB;}.cls-4{fill:#f5cfbd;}.cls-5{stroke:#d85b3e;}.cls-10,.cls-19,.cls-5,.cls-7{stroke-linecap:round;}.cls-6{fill:#d1e0d9;}.cls-19,.cls-7{stroke:#81c9b4;}.cls-10,.cls-19,.cls-7{stroke-linejoin:round;}.cls-8{fill:#c1c0c0;}.cls-9{fill:#fdede3;}.cls-11,.cls-12,.cls-20{font-size:10px;}.cls-11,.cls-12,.cls-14{fill:#d85b3e;}.cls-13,.cls-16{fill:#3e3a39;}.cls-17{stroke:#de7357;}.cls-18{fill:#81c9b4;}.cls-20{fill:#898989;}.cls-21{stroke:#e69276;}</style></defs><title>china-trend</title><text class="cls-1" transform="translate(2.62 19.55)">20年间中国肺结核发病率及死亡率下降快</text><polyline class="cls-2" points="94.64 73.55 94.64 179.01 196.92 179.01"/><polyline class="cls-2" points="235.48 73.55 235.48 179.01 337.76 179.01"/><text class="cls-3" transform="translate(76.99 106.16)">100</text><text class="cls-3" transform="translate(126.97 200.83)">发病率</text><text class="cls-3" transform="translate(274.29 200.83)">死亡率</text><text class="cls-3" transform="translate(226.87 97.48)">9</text><text class="cls-3" transform="translate(226.87 123.74)">6</text><text class="cls-3" transform="translate(226.87 151.9)">3</text><text class="cls-3" transform="translate(226.87 177.03)">0</text><text class="cls-3" transform="translate(80.81 141.32)">50</text><text class="cls-3" transform="translate(85.89 177.03)">0</text><path class="cls-4" d="M130.09,102.21s.58.53.61.55c1.65,1.39,34.6,29.05,37.63,29.73s3.81-.7,6.21,1.56,3.39,4.23,6.35,4.94,4.24-.71,7.49.85,12.05,7.48,20.11,8.47c7.43.9,8.39.25,12.75,3.67a3.55,3.55,0,0,1,1.62,2.05,23.5,23.5,0,0,1-.33,9.86,182.82,182.82,0,0,0-20.74-4.57c-7.23-1.08-10.86-3.62-11.73-4.44a2.29,2.29,0,0,0-1-.52l-9.44-.66a2.38,2.38,0,0,1-.74-.24l-3.73-2.69-.5-.22L151.39,147l-20.06-4a1.5,1.5,0,0,1-1.24-1.5Z" transform="translate(-31.05 -24.92)"/><path class="cls-5" d="M131.77,124.44S167.41,142,170,142.09s2.88-1.64,7.84,3.94a1.16,1.16,0,0,0,.69.38l9.72,1.59a1.1,1.1,0,0,1,.35.11c1.24.65,9.41,4.84,15.25,6,6.33,1.24,13.21,1.51,18.17,4.27" transform="translate(-31.05 -24.92)"/><line class="cls-2" x1="99.02" y1="173.5" x2="191.74" y2="174.35"/><path class="cls-6" d="M270.69,102.28l19.47,44h4.71l15.52,13.16s5.56-.32,9.42,2.22l4.38,6,4.82,2.22h4.82l5.56,2.33h9.85L364,178.41v4.45l-14.55-6H338.64l-4.28-1.9-5-.21s-7.92-7.63-19.16-7.73L295,155.54l-4.6,1.27-5.25-11.54s-8.45-1-14.44-5.4Z" transform="translate(-31.05 -24.92)"/><path class="cls-7" d="M271,123.46l14.82,16.94,4.87,10.8h4.87l14.83,12.69s6.56-.62,9.1,1.5,9.53,7.41,9.53,7.41l5-.42,4.8,2.54h10.45l13.55,5.5" transform="translate(-31.05 -24.92)"/><path class="cls-8" d="M270.19,184.87s6.28,3,10,2.82l11,4.8,4.43,1h5.85l36.27,1.41,25.7,1.84.57,2.54-75-1.55s-15.42-2.12-18.85-1.56Z" transform="translate(-31.05 -24.92)"/><rect class="cls-9" x="2.62" y="35.66" width="66.78" height="18.35"/><path class="cls-10" d="M271,191.36s14.89,2.83,20.54,4.66l71.29,2.4" transform="translate(-31.05 -24.92)"/><text class="cls-11" transform="translate(8.04 47.63)">2000-2019</text><text class="cls-12" transform="translate(363.42 47.63)">单位：1/10万</text><text class="cls-13" transform="translate(7.31 90.83)">结核病的发病率<tspan x="0" y="11">以</tspan><tspan class="cls-14" x="8" y="11">红色</tspan><tspan x="24" y="11">表示，艾</tspan><tspan x="0" y="22">滋病毒阳性结核</tspan><tspan x="0" y="33">病的发病率以</tspan><tspan class="cls-15" x="48" y="33">灰</tspan><tspan class="cls-15"><tspan x="0" y="44">色</tspan><tspan class="cls-16" x="8" y="44">表示。 阴影</tspan></tspan><tspan x="0" y="55">区域表示不确定</tspan><tspan x="0" y="66">区间。</tspan></text><rect class="cls-17" x="0.5" y="77.29" width="68.89" height="101.72"/><text class="cls-13" transform="translate(361.24 90.83)">HIV阴性人群的<tspan x="0" y="11">结核病死亡率以</tspan><tspan class="cls-18"><tspan x="0" y="22">蓝色</tspan><tspan class="cls-16" x="16" y="22">显示，HIV</tspan></tspan><tspan x="0" y="33">阳性结核病的死</tspan><tspan x="0" y="44">亡率以</tspan><tspan class="cls-15" x="24" y="44">灰色</tspan><tspan x="40" y="44">显示</tspan><tspan x="0" y="55">。阴影区域表示</tspan><tspan x="0" y="66">不确定性区间。</tspan></text><rect class="cls-19" x="354.43" y="77.29" width="68.89" height="101.72"/><text class="cls-20" transform="translate(1 232.55)">数据来源：世界卫生组织（WHO）：Global Tuberculosis Report 2020</text><line class="cls-21" x1="1" y1="215.03" x2="358.38" y2="215.03"/></svg>