<?xml version="1.0" standalone="no"?><!DOCTYPE svg PUBLIC "-//W3C//DTD SVG 1.1//EN" "http://www.w3.org/Graphics/SVG/1.1/DTD/svg11.dtd"><svg t="1653904070345" class="icon" viewBox="0 0 1024 1024" version="1.1" xmlns="http://www.w3.org/2000/svg" p-id="7090" xmlns:xlink="http://www.w3.org/1999/xlink" width="200" height="200"><defs><style type="text/css">@font-face { font-family: feedback-iconfont; src: url("//at.alicdn.com/t/font_1031158_u69w8yhxdu.woff2?t=1630033759944") format("woff2"), url("//at.alicdn.com/t/font_1031158_u69w8yhxdu.woff?t=1630033759944") format("woff"), url("//at.alicdn.com/t/font_1031158_u69w8yhxdu.ttf?t=1630033759944") format("truetype"); }
</style></defs><path d="M237.6 222.4l5.8-1.9 10.7 4.8 11.7-3.9 5.8 3.9 23.3-9.7h5.8v5.8l3.9-3.9 1 15.5h2.9v11.6l3.9 5.8-3.9 1 1 3.9-4.9 3.9 10.7 11.6-5.8 11.6 10.7 8.7 1 8.7 6.8-1 2.9 8.7 7.8 1 3.9 12.6 6.8-1.9 6.8 5.8 1.9-5.8 3.9 2.9 12.6-3.9 1 3.9h4.9l6.8-13.5 2.9 5.8h7.8v7.7l3.9 6.8 14.6-5.8 2.9 3.9 1-3.9 4.9 3.9 9.7-7.7-2.9-3.9 5.8 2.9 8.7-6.8 7.8 1.9v20.3l10.7 13.6 11.7 5.8 24.3 4.8 4.9-5.8h5.8l5.8-4.8 10.7-2.9 19.4 13.5 14.6 1 1.9 6.8 8.7 14.5-7.8 15.5 5.8 31 9.7-10.6 8.7 5.8 1-3.9 11.7 1 10.7 6.8v6.8l-6.8 1 3.9 7.7-2.9 4.8 12.6 14.5-1.9 7.7 7.8 5.8 2.9-3.9 1.9 11.6 3.9 3.9h9.7l17.5-7.7-4.9-6.8 4.9-3.9-3.9-2.9 3.9-4.8-3.9-7.7 8.7 1 4.9-10.6 12.6-8.7 9.7 15.5V475l15.5 31.9h2.9l5.9 15.5-2 2.9 3.9 1 7.8 21.3 6.8-1.9 4.9 3.9 17.5-5.8 1-25.2 2.9-2.9 8.7 1.9 11.7-9.7h20.4l4.9-2.9-1-5.8 14.6-9.7 4.9 3.9 0.9 17.4 6.8 1 21.4-23.2-0.9 11.6 16.5 36.8 9.7 1v3.9l15.6 10.6 3.9 7.7 13.6-7.7 9.7 10.6 12.7-7.7 1.9 10.6-8.8 20.3v7.7l-9.7 14.5 2.9 10.6-8.7 1v6.8l-17.5-1-3.9 4.8-6.8-2.9-25.3 14.5 5.8 5.8 6.8-2.9 7.8 9.7-1.9 8.7-3.9 1 3.9 11.6h-3.9l-3.9-20.3H865v6.8l-3.9 1V657h-3.9l-11.6-12.6 0.9-21.3-12.6-1 1.9-7.7-1.9-1.9-8.8 2.9-9.7-4.8-12.6 33.9 1.9 12.6-5.8 19.4H794l-2.9-3.9-6.8 10.6-7.8-7.7-8.7-1-3 7.7-6.8 1 2 5.8-5.9 8.7 3 5.8-22.2 13.5-1 6.8-17.5-2.9-4.9 4.8-5.8-2.9-8.7 3.9-17.5-5.8-21.4 8.7L660 748l4.9 9.7 14.6 13.6-14.5 26-3.9 1-14.6-8.7-6.8 3.9h-18.4l-8.7-6.8-10.7 1-1-1.9h-11.7l1-3.9-14.6-2.9 6.8-6.8-13.6-8.7 3.9-2.9-1.9-3.9-10.7-4.8V748l-6.8 9.7-3.9-1.9-1.9 4.8-8.7-4.8 3.9 3.9-2.9 4.8H534l-5.8 6.8 2.9 6.8-6.8 12.6 1 9.7h-5.8l-13.6 22.3-15.5 8.7 2.9 2.9-5.8 8.7-7.8 6.8 2.9 1-6.8 2.9-2.9-3.9-7.8 4.8-2.9-3.9-5.8 3.9-5.8-4.8-6.8 1 8.7-7.7 4.9-11.6-2.9-2.9 7.8-7.7-4.9-1 1-6.8-8.7-3.9v-7.7l-9.7-8.7V786l-7.8-13.6 1.9-8.7-12.6-1.9 2.9-7.7-4.9-8.7 3.9-10.7-2.9-3.9 15.5-19.4-10.7-5.8-4.9 5.8-1-17.4-2.9-3.9-6.8 1v-12.6l-8.7-10.7 1.9-11.6h-5.8l-3.9-7.7V635l-10.7-1 1-21.3-2.9-3.9 3.9-12.6-16.5 8.7-3.9 9.7-16.5 16.5-1-3.9-6.8-3.9 5.8-7.7-7.8-3.9 5.8-9.7-9.7-9.7-1.9-6.8-4.9-3.9-7.8 1-2.9-4.8h-6.8L291 553.4l-7.8 13.5h-8.7l-10.7-10.6-3.9 4.8-9.7-8.7v-6.8l9.7 1.9-1.9-6.8 7.8 1 2.9-3.9-6.8-15.5 1.9-11.6-13.6-25.2 5.8-10.6-6.8-3.9-7.8-16.5-6.8-3.9v-18.4l-10.7 1-11.5 12.8-34 20.3-18.5-3.9 1.9-24.2-4.9-1-2.9-7.7-7.8-3.9 1-18.4-3.9-2.9 8.7-3.9h-6.8l-5.8-14.5 3.9-1 2.9-29 10.7-8.7v-5.8l-7.8-3.9 1-15.5-11.7-6.8-3.9-8.7 2.9-9.7-2.9-5.8-10.7-3.9-10.7 3.9-7.8-8.7 9.7-4.8 5.8-15.5-3.9-9.7 5.8-1.9 10.7 4.8 1.9-1 9.7 12.6 12.6 9.7 10.7-7.7V263h3.9l10.7 17.4 14.6 10.6 7.8-10.6 2.9-11.6-3.9-24.2 22.3-3.9 4.9-4.8V232l6.1-9.6z" p-id="7091" fill="#E97658"></path></svg>