<?xml version="1.0" standalone="no"?><!DOCTYPE svg PUBLIC "-//W3C//DTD SVG 1.1//EN" "http://www.w3.org/Graphics/SVG/1.1/DTD/svg11.dtd"><svg t="1653903532572" class="icon" viewBox="0 0 1024 1024" version="1.1" xmlns="http://www.w3.org/2000/svg" p-id="4992" xmlns:xlink="http://www.w3.org/1999/xlink" width="200" height="200"><defs><style type="text/css">@font-face { font-family: feedback-iconfont; src: url("//at.alicdn.com/t/font_1031158_u69w8yhxdu.woff2?t=1630033759944") format("woff2"), url("//at.alicdn.com/t/font_1031158_u69w8yhxdu.woff?t=1630033759944") format("woff"), url("//at.alicdn.com/t/font_1031158_u69w8yhxdu.ttf?t=1630033759944") format("truetype"); }
</style></defs><path d="M757.2 389.6l-3.5-13.8 7-6.9 7 17.3-10.5 3.4z m48.8-3.4l17.4 10.3 7-15.5-34.8-24.2h-19.2l-3.5-3.4 10.5 32.8H806z m29.6-84.5h-13.9v8.6l24.4 3.4-10.5-12z m7 37.9l-20.9 3.5 19.2 3.4 1.7-6.9zM813 327.5l-26.1 3.5 27.9 12.1-1.8-15.6z m-22.7 94.9l-3.5 12.1h8.7l12.2 12.1 5.2-6.9-15.7-19-6.9 1.7z m50.5-8.6l1.7-19h-13.9l12.2 19z m-13.9 12l-3.5-12.1H813l13.9 12.1zM661.4 693.2L644 707l5.2 17.3 20.9-6.9-3.5-19-5.2-5.2z m113.2-181.1l5.2 1.7-10.5 12.1-19.2 6.9-1.7-39.7-5.2 5.2-1.7 29.3-19.2-1.7-5.2-10.3-10.5 10.3 10.5 8.6-20.9-1.7v8.6l27.9-1.7-1.7 8.6 12.2 6.9-7 6.9 8.7 5.2-12.2 6.9-20.9-6.9 20.9 12.1 5.2 15.5-8.7 13.8-24.4 5.2 7 1.7 7 22.4 12.2 1.7-8.7 15.5 3.5 19 12.2-3.4-5.2 10.3-8.7 6.9v-10.3l-19.2-3.5-19.2 32.8-15.7-20.7-7-22.4-13.9 39.7-12.2 3.4-7 25.9h-24.4l-15.7-8.6 3.5 8.6 19.2 10.3v10.3l-40.1 46.6 5.2 17.2 8.7 1.7-8.7 10.3 1.7 10.3-15.7-6.9-5.2 12.1 7 1.7-3.5 6.9 1.7 5.2-10.5 13.8-10.5-13.8 1.7-1.7-8.7-13.8-3.5-10.3H515l-5.2-3.5h-19.2l-13.9 13.8-5.2-6.9-8.7 10.3-27.9 3.5 1.7-5.2-13.9-19 1.7-12.1-10.4-13.6 1.7-13.8h-13.9l-3.5 5.2-7-1.7-7 24.1-8.7-3.4-20.9 19-17.4-3.5-1.7-6.9-17.4-1.7-8.7 3.5-5.2 3.5-7-12.1 1.7-32.8-10.5-32.8-13.9-12.1v-13.8l10.5-10.3-3.5-10.3L285 688l-13.9-10.3-15.7 8.6-3.5-5.2H238v6.9l-8.7-6.9 8.7-8.6-7-12.1 5.2-12.1-10.5-3.5 3.5-31-7-19-12.2-8.6-7-13.8-10.5 1.7 3.5-6.9-5.2-5.2-13.9-1.7-7-19 5.2-34.5H189l7-8.6-3.5-8.6 8.7-6.9 8.7 3.5 1.7-13.8 12.2 1.7L238 469l10.5-19 27.9-20.7 1.7-19L299 393v-36.2l-3.5-1.7 8.7-8.6-5.2-17.2 10.5-8.6 13.9 8.6 27.9 1.7 5.2-6.9 20.9-3.4-8.7-31h-13.9v-13.8h10.5l10.5-12.1 8.7 6.9 7-22.4 13.9-12.1 10.5-51.8 20.9-8.6 20.9 1.7 12.2 25.9 26.1 17.2 33.1-3.5-1.7 12.1 10.5-6.9 12.2 27.6 12.2-15.5 19.2-6.9-3.5-13.8 31.4-8.6 17.4 3.5-3.5 29.3 17.4-1.7 3.5 12.1h15.7l7 5.2v10.3L623.3 288l-12.2 32.8-22.7 6.9-5.2-10.3-12.2-3.5 7 25.9 5.2 6.9h13.9l7 10.3 47-29.3h24.4l27.9 20.7 29.6 39.7 15.7 1.7 20.9 12.1 31.4-1.7v3.5l-43.6 24.2v8.6l-22.7 24.2-27.9 8.6-5.2-6.9-10.6 13.5 3.5 10.3 8.7-12.1-1.7 15.5 12.2-13.8 22.7-10.4 12.2 8.6 5.2-12.1-13.9-1.7 27.9-13.8 12.2 6.9-12.2 12.1 8.7 13.8-8.7 6.9v12.1l5.2 1.7-8.7 6.9 10.3 5.3z m-27.8 22.4v5.2h17.4l3.5 8.6 8.7-3.5-7-17.2-12.2 6.9h-10.4z" p-id="4993" fill="#E97658"></path></svg>