<?xml version="1.0" standalone="no"?><!DOCTYPE svg PUBLIC "-//W3C//DTD SVG 1.1//EN" "http://www.w3.org/Graphics/SVG/1.1/DTD/svg11.dtd"><svg t="1653903985415" class="icon" viewBox="0 0 1024 1024" version="1.1" xmlns="http://www.w3.org/2000/svg" p-id="6155" xmlns:xlink="http://www.w3.org/1999/xlink" width="200" height="200"><defs><style type="text/css">@font-face { font-family: feedback-iconfont; src: url("//at.alicdn.com/t/font_1031158_u69w8yhxdu.woff2?t=1630033759944") format("woff2"), url("//at.alicdn.com/t/font_1031158_u69w8yhxdu.woff?t=1630033759944") format("woff"), url("//at.alicdn.com/t/font_1031158_u69w8yhxdu.ttf?t=1630033759944") format("truetype"); }
</style></defs><path d="M247.2 482.5l16.4-6v-9.1l22.3-3 17.8 6 35.7-6 31.2-22.7 23.8-6 25.3 1.5 6-13.6 14.9-3 11.9-34.7-10.5-22.8 3-12.1 8.9-9.1-3-25.7 1.5-36.3 8.9-24.2 8.9-15.1-1.5-7.6 13.4-12.1 10.4-30.2 17.8 1.5v-22.7l26.8-1.5 13.4-12.1h25.3l7.4 43.8 16.4 6v12.1l-34.2 45.3-4.5 30.2-23.8 39.3 41.6 27.2 26.8 6.1 20.8-6.1 22.3 12.1 11.9 13.6-3 9.1 32.7 12.1-4.5 16.6-16.4 1.5-3 12.1-11.9 1.5v7.6l-10.4 6.1 7.4 9.1-10.4 12.1-3 19.6 6 22.7-4.5 1.5 8.9 7.6-4.5 12.1-4.5-6v9.1L626 529.3l-20.8 6-13.4-6-3 7.6-13.4-9.1-4.5 12.1-17.8-9.1 4.5 28.7-8.9 4.5-5.9-6 7.4 12.1 7.4 1.5v28.7l-8.9-6-7.4 4.5-10.1 18.2v10.6l-11.9-1.5 22.3 13.6-4.5 34.7 7.4 1.5 3-6 25.3 12.1 8.9-1.5 11.9 18.1 4.5-1.5v24.2l-8.9 6.1 6 3-8.9 7.6 8.9 12.1-16.4 16.6-7.4-1.5-1.5 6-25.3-10.6-13.4 7.6 7.4 55.9-17.8 19.6-13.4-16.7-3-12.1-7.4-3-10.4 12.1-6-12.1 1.5-4.5-20.8 7.6v-7.6l19.3-4.5-1.5 4.5 6-6-26.8-9.1-6 9.1-4.5-12.1-14.7-18.3 7.4-9.1-14.9-1.5-8.9 10.6-3-6-13.4-4.5-4.5-12.1-6 3 4.5-9.1-8.9-4.5-1.5-21.2 13.4-13.6h8.9l1.5-7.6-3-25.7-10.4-9.1-6-25.7-14.9-6.1 3-3-8.9-25.7 17.8-12.1-7.4-13.6-11.9-3-3-15.1-25.1-10.3-16.4-28.7-7.4-4.5-10.4 9.1-10.4-4.5-4.5-9.1 14.9-12.1-4.5-3 7.4-9.1-59.4-1.6z" p-id="6156" fill="#E97658"></path></svg>